Coordinates
version=1
nRows=41
nColumns=38
inDegrees=no

Units are S.I. units (second, meters, Newtons, ...)
If the header above contains a line with 'inDegrees', this indicates whether rotational values are in degrees (yes) or radians (no).

endheader
time	pelvis_tilt	pelvis_list	pelvis_rotation	pelvis_tx	pelvis_ty	pelvis_tz	hip_flexion_r	hip_adduction_r	hip_rotation_r	knee_angle_r	ankle_angle_r	subtalar_angle_r	mtp_angle_r	hip_flexion_l	hip_adduction_l	hip_rotation_l	knee_angle_l	ankle_angle_l	subtalar_angle_l	mtp_angle_l	lumbar_extension	lumbar_bending	lumbar_rotation	arm_flex_r	arm_add_r	arm_rot_r	elbow_flex_r	pro_sup_r	wrist_flex_r	wrist_dev_r	arm_flex_l	arm_add_l	arm_rot_l	elbow_flex_l	pro_sup_l	wrist_flex_l	wrist_dev_l
0.89	-0.871693	1.37323	2.46688	0.78004	-0.168145	1.01819	0.691182	-0.188486	0.30392	1.32535	-0.249816	0	0	0.183564	0.128726	-0.282963	0.356261	-0.15269	0	0	-0.171235	-0.215955	0.187047	0.205263	-0.367118	0.922303	0.440967	0.762488	0	0	0.275314	-0.324459	0.958524	0.449211	0.732915	0	0
0.9	-0.874826	1.37354	2.46859	0.778948	-0.161052	1.01794	0.704377	-0.182496	0.308381	1.3055	-0.23974	0	0	0.174194	0.129889	-0.285338	0.355403	-0.148453	0	0	-0.171073	-0.215477	0.189112	0.207533	-0.37037	0.928753	0.443043	0.756466	0	0	0.27992	-0.324656	0.97424	0.450091	0.716762	0	0
0.91	-0.88116	1.37305	2.47333	0.77788	-0.153974	1.01745	0.71888	-0.178192	0.31296	1.28851	-0.224386	0	0	0.164749	0.13235	-0.287449	0.354199	-0.141203	0	0	-0.167689	-0.215472	0.191024	0.215199	-0.375913	0.96822	0.444476	0.712568	0	0	0.288082	-0.327353	1.0182	0.450575	0.669351	0	0
0.92	-0.881981	1.37364	2.47376	0.776751	-0.146715	1.01718	0.729325	-0.174381	0.315621	1.2661	-0.21319	0	0	0.155306	0.133368	-0.287651	0.352702	-0.136987	0	0	-0.168426	-0.214292	0.190199	0.217797	-0.378346	0.970233	0.446943	0.711859	0	0	0.28855	-0.32671	1.01509	0.451642	0.670975	0	0
0.93	-0.88056	1.37327	2.47171	0.775665	-0.139398	1.01665	0.741838	-0.171235	0.317867	1.2453	-0.203841	0	0	0.146859	0.134838	-0.288154	0.351353	-0.132764	0	0	-0.16764	-0.213634	0.189753	0.219745	-0.38077	0.972216	0.449886	0.712268	0	0	0.288553	-0.32617	1.01141	0.452558	0.673652	0	0
0.94	-0.878331	1.37245	2.46864	0.774647	-0.131952	1.01603	0.75489	-0.168812	0.319828	1.22402	-0.19662	0	0	0.138443	0.136562	-0.288861	0.34947	-0.128634	0	0	-0.166316	-0.213266	0.189503	0.221301	-0.382965	0.973517	0.452809	0.713239	0	0	0.288211	-0.325617	1.00691	0.453217	0.67747	0	0
0.95	-0.875894	1.37127	2.46528	0.773687	-0.124411	1.01533	0.767731	-0.166762	0.321538	1.20257	-0.190357	0	0	0.130055	0.138606	-0.289211	0.347105	-0.124514	0	0	-0.164811	-0.21325	0.189456	0.222536	-0.384895	0.97401	0.455443	0.714805	0	0	0.287638	-0.324882	1.00132	0.453493	0.682497	0	0
0.96	-0.872665	1.36971	2.46107	0.772786	-0.116793	1.01454	0.78116	-0.164918	0.32336	1.18176	-0.185448	0	0	0.12218	0.140761	-0.28945	0.345097	-0.120568	0	0	-0.163016	-0.21349	0.189511	0.223435	-0.386644	0.973635	0.458031	0.717267	0	0	0.286711	-0.324117	0.994253	0.453683	0.688685	0	0
0.97	-0.868188	1.36778	2.45585	0.771906	-0.109065	1.01364	0.794117	-0.163305	0.324061	1.16008	-0.181345	0	0	0.114911	0.142836	-0.289917	0.343628	-0.117212	0	0	-0.160747	-0.213826	0.189335	0.223829	-0.38828	0.97225	0.460929	0.720903	0	0	0.285214	-0.323397	0.985533	0.453958	0.696285	0	0
0.98	-0.863019	1.36542	2.44999	0.771059	-0.101193	1.01265	0.806568	-0.161895	0.323406	1.13771	-0.177732	0	0	0.107999	0.144937	-0.290584	0.34233	-0.114697	0	0	-0.158141	-0.214379	0.189052	0.223652	-0.389565	0.969255	0.46375	0.726237	0	0	0.282977	-0.322738	0.974259	0.454372	0.707091	0	0
0.99	-0.859828	1.36282	2.44611	0.770257	-0.0932474	1.01155	0.818524	-0.160829	0.322234	1.11568	-0.173546	0	0	0.101064	0.147189	-0.292015	0.341557	-0.111581	0	0	-0.153904	-0.215212	0.190602	0.224226	-0.391968	0.978182	0.466109	0.716939	0	0	0.286068	-0.324144	0.992923	0.454442	0.687292	0	0
1	-0.854832	1.35943	2.4404	0.769465	-0.0852569	1.01031	0.832102	-0.160285	0.321275	1.09517	-0.169113	0	0	0.0955218	0.14948	-0.294878	0.342023	-0.108191	0	0	-0.148893	-0.216405	0.19195	0.224557	-0.39412	0.986349	0.468381	0.708071	0	0	0.288034	-0.325699	1.00829	0.455022	0.670604	0	0
1.01	-0.853775	1.35623	2.43796	0.768815	-0.0771767	1.00901	0.844419	-0.159608	0.320295	1.07537	-0.159641	0	0	0.0889094	0.152144	-0.297704	0.342397	-0.102748	0	0	-0.141952	-0.217341	0.191974	0.232648	-0.397455	1.03097	0.468575	0.664026	0	0	0.290651	-0.329516	1.0399	0.45581	0.634707	0	0
1.02	-0.850641	1.35291	2.43369	0.768216	-0.0688585	1.00775	0.855859	-0.159221	0.317227	1.05573	-0.148104	0	0	0.0822035	0.154878	-0.298557	0.341834	-0.0998212	0	0	-0.138171	-0.218832	0.192702	0.231767	-0.398656	1.03149	0.47125	0.664903	0	0	0.288527	-0.330375	1.0358	0.457133	0.638479	0	0
1.03	-0.847597	1.34961	2.42964	0.767668	-0.0604061	1.00645	0.86642	-0.15904	0.313314	1.03748	-0.132394	0	0	0.0756141	0.157419	-0.299789	0.341789	-0.0970205	0	0	-0.134351	-0.220277	0.193256	0.230478	-0.399771	1.03075	0.474155	0.665952	0	0	0.28598	-0.331299	1.03042	0.458707	0.642949	0	0
1.04	-0.843736	1.34566	2.42467	0.767118	-0.0518777	1.00507	0.876447	-0.159064	0.310534	1.01983	-0.112912	0	0	0.0699415	0.160309	-0.301182	0.342336	-0.0944299	0	0	-0.129968	-0.222034	0.193776	0.228906	-0.400829	1.02926	0.477272	0.667957	0	0	0.282856	-0.33218	1.02343	0.460473	0.648097	0	0
1.05	-0.839876	1.34182	2.41956	0.766682	-0.0432294	1.00366	0.886173	-0.159009	0.307917	1.00425	-0.0919278	0	0	0.0643676	0.162809	-0.303048	0.343449	-0.0919245	0	0	-0.12558	-0.223674	0.194475	0.227074	-0.401731	1.0273	0.480509	0.671382	0	0	0.279253	-0.333169	1.01551	0.462385	0.654813	0	0
1.06	-0.836435	1.33865	2.41515	0.766357	-0.0344195	1.00231	0.894305	-0.158809	0.304434	0.990394	-0.0712435	0	0	0.0583848	0.164482	-0.305338	0.345172	-0.0895402	0	0	-0.121759	-0.224843	0.194873	0.224968	-0.402426	1.02421	0.483794	0.675645	0	0	0.275172	-0.334296	1.00644	0.464332	0.662998	0	0
1.07	-0.833117	1.33584	2.41147	0.766038	-0.0254122	1.00096	0.901397	-0.158676	0.300788	0.978753	-0.052868	0	0	0.0520295	0.165802	-0.307521	0.347165	-0.0874955	0	0	-0.118234	-0.225707	0.194842	0.222296	-0.403049	1.01982	0.487182	0.680748	0	0	0.27061	-0.335462	0.996104	0.466254	0.672571	0	0
1.08	-0.829741	1.33332	2.4083	0.765702	-0.0161803	0.999603	0.907067	-0.158867	0.296424	0.968799	-0.0380773	0	0	0.0451263	0.167032	-0.30888	0.348768	-0.0860971	0	0	-0.115028	-0.226293	0.194311	0.218892	-0.403403	1.01345	0.490499	0.688379	0	0	0.265184	-0.336334	0.982274	0.467928	0.685495	0	0
1.09	-0.832544	1.33225	2.41115	0.765522	-0.00680577	0.998244	0.910217	-0.158791	0.29274	0.96228	-0.0199426	0	0	0.036759	0.166944	-0.314423	0.353571	-0.0815703	0	0	-0.106953	-0.225019	0.190682	0.233096	-0.406034	1.0874	0.48853	0.618123	0	0	0.265054	-0.343124	1.0224	0.469277	0.634542	0	0
1.1	-0.831887	1.33141	2.41143	0.76536	0.00285179	0.997016	0.911705	-0.158405	0.28912	0.956402	-0.00745715	0	0	0.028323	0.166301	-0.317709	0.357286	-0.0792352	0	0	-0.10447	-0.224494	0.189464	0.231125	-0.406649	1.08935	0.491458	0.618083	0	0	0.260331	-0.34475	1.01612	0.470546	0.638306	0	0
1.11	-0.831517	1.33142	2.41312	0.765166	0.0127746	0.995839	0.910159	-0.157922	0.285841	0.952393	0.00428036	0	0	0.0194383	0.164511	-0.321015	0.36226	-0.0766736	0	0	-0.102541	-0.223305	0.187441	0.228612	-0.407243	1.09074	0.494541	0.618185	0	0	0.255324	-0.346363	1.00953	0.47174	0.642369	0	0
1.12	-0.830475	1.33212	2.41495	0.764973	0.0229454	0.994651	0.906597	-0.157044	0.283906	0.95075	0.0140555	0	0	0.0106272	0.161527	-0.324202	0.368835	-0.0740688	0	0	-0.100609	-0.221329	0.184751	0.225431	-0.407868	1.09122	0.498029	0.618266	0	0	0.249796	-0.348005	1.00247	0.472929	0.646731	0	0
1.13	-0.82913	1.33342	2.41677	0.764864	0.0333274	0.99345	0.902067	-0.155747	0.284279	0.952303	0.0189868	0	0	0.00181557	0.157353	-0.327962	0.376801	-0.0713872	0	0	-0.0986456	-0.218722	0.181809	0.221743	-0.408515	1.09102	0.501927	0.618863	0	0	0.243926	-0.349707	0.995287	0.474013	0.651757	0	0
1.14	-0.828513	1.33544	2.41948	0.764875	0.0439305	0.992272	0.894786	-0.153177	0.286187	0.956032	0.019264	0	0	-0.00738683	0.152124	-0.332233	0.385862	-0.0687555	0	0	-0.0969629	-0.215639	0.178955	0.217565	-0.40921	1.09076	0.506238	0.620871	0	0	0.237832	-0.351401	0.987817	0.475054	0.657424	0	0
1.15	-0.827959	1.33826	2.42264	0.764991	0.0547069	0.991127	0.884884	-0.149559	0.288634	0.961325	0.0160603	0	0	-0.016787	0.145879	-0.336213	0.395911	-0.0663561	0	0	-0.0957968	-0.211938	0.175908	0.212938	-0.409823	1.08951	0.510762	0.62354	0	0	0.231503	-0.353029	0.979556	0.476062	0.663531	0	0
1.16	-0.82846	1.34144	2.42798	0.76494	0.0657613	0.989971	0.873522	-0.147232	0.290429	0.968188	0.0133125	0	0	-0.026754	0.13959	-0.33867	0.406119	-0.0644399	0	0	-0.0947954	-0.207832	0.171848	0.207421	-0.410467	1.08636	0.515441	0.626473	0	0	0.224598	-0.354544	0.970868	0.476937	0.670617	0	0
1.17	-0.830829	1.34479	2.43565	0.764866	0.0770068	0.988803	0.86194	-0.14553	0.291793	0.976804	0.0121547	0	0	-0.0371399	0.133415	-0.339906	0.416487	-0.0631775	0	0	-0.0940253	-0.203838	0.167592	0.201308	-0.411207	1.08295	0.520622	0.631732	0	0	0.217479	-0.356014	0.96177	0.477687	0.678515	0	0
1.18	-0.832095	1.34731	2.44315	0.764595	0.0884887	0.98752	0.852862	-0.145491	0.29136	0.987455	0.00963123	0	0	-0.0465265	0.127937	-0.338875	0.427159	-0.0626259	0	0	-0.0922374	-0.200201	0.162716	0.193813	-0.411793	1.07668	0.525834	0.638234	0	0	0.209595	-0.357166	0.951133	0.477978	0.688073	0	0
1.19	-0.832089	1.3493	2.44841	0.764593	0.0999766	0.986178	0.847167	-0.144859	0.290924	0.999475	0.00131445	0	0	-0.0541748	0.121954	-0.338995	0.439811	-0.0628085	0	0	-0.0905071	-0.197128	0.158929	0.184876	-0.412071	1.0639	0.531691	0.651189	0	0	0.200622	-0.357991	0.933032	0.478737	0.705907	0	0
1.2	-0.832689	1.35198	2.45304	0.764979	0.111408	0.984818	0.842321	-0.142294	0.290754	1.0122	-0.0132054	0	0	-0.0600969	0.113292	-0.344181	0.458238	-0.0629515	0	0	-0.0815982	-0.191952	0.147909	0.200899	-0.412154	1.14296	0.529167	0.578774	0	0	0.189153	-0.364556	0.943653	0.479828	0.680463	0	0
1.21	-0.826425	1.35391	2.45044	0.765528	0.122863	0.983591	0.83766	-0.138754	0.291148	1.02187	-0.0272389	0	0	-0.0633148	0.104298	-0.346237	0.477129	-0.0653444	0	0	-0.077612	-0.188412	0.145613	0.194715	-0.411852	1.14023	0.532935	0.579852	0	0	0.181256	-0.366126	0.933391	0.479816	0.68819	0	0
1.22	-0.815909	1.35581	2.44296	0.766236	0.134278	0.982481	0.832895	-0.134871	0.291124	1.02982	-0.0403554	0	0	-0.0639388	0.093889	-0.34824	0.499287	-0.069145	0	0	-0.0731491	-0.184539	0.144531	0.188435	-0.411316	1.13792	0.536333	0.582787	0	0	0.174096	-0.367162	0.923499	0.47911	0.695857	0	0
1.23	-0.803597	1.35793	2.43272	0.767186	0.145574	0.981618	0.827365	-0.130683	0.290173	1.0353	-0.0528305	0	0	-0.0628895	0.0826372	-0.349305	0.523356	-0.0744864	0	0	-0.0691528	-0.180479	0.144574	0.182208	-0.41032	1.13355	0.539071	0.584226	0	0	0.167928	-0.367889	0.914437	0.477848	0.703435	0	0
1.24	-0.788634	1.36048	2.41891	0.768358	0.156771	0.981043	0.822169	-0.125888	0.28692	1.04058	-0.0661918	0	0	-0.0593862	0.0693244	-0.351674	0.551847	-0.0823166	0	0	-0.0657976	-0.175924	0.145438	0.175934	-0.408752	1.12596	0.540991	0.585092	0	0	0.162083	-0.368142	0.90366	0.476176	0.713604	0	0
1.25	-0.772007	1.36374	2.4027	0.769739	0.1679	0.980862	0.817535	-0.119906	0.281997	1.04802	-0.0796714	0	0	-0.0535745	0.0538365	-0.355129	0.584997	-0.0936136	0	0	-0.0633601	-0.170967	0.147172	0.170696	-0.406547	1.11998	0.541412	0.591513	0	0	0.156843	-0.367634	0.891856	0.473457	0.72609	0	0
1.26	-0.756603	1.36725	2.38615	0.771344	0.178819	0.981098	0.813646	-0.111914	0.278548	1.05792	-0.0923573	0	0	-0.0453671	0.0375155	-0.358861	0.622533	-0.108362	0	0	-0.0622919	-0.166335	0.15061	0.166581	-0.404056	1.11528	0.541046	0.600115	0	0	0.153182	-0.366241	0.880504	0.469688	0.737274	0	0
1.27	-0.744903	1.37031	2.37159	0.773141	0.189427	0.981696	0.809666	-0.102245	0.278281	1.06778	-0.103601	0	0	-0.0342125	0.0218016	-0.361442	0.664646	-0.125665	0	0	-0.0625847	-0.162867	0.155907	0.162985	-0.401567	1.10807	0.540604	0.607421	0	0	0.151483	-0.364296	0.870329	0.465113	0.748896	0	0
1.28	-0.733501	1.37246	2.35742	0.774948	0.199832	0.982534	0.805167	-0.0927633	0.278668	1.07583	-0.112643	0	0	-0.0187155	0.0064746	-0.360748	0.711766	-0.146323	0	0	-0.0634814	-0.1605	0.161692	0.15853	-0.398629	1.09513	0.540057	0.618403	0	0	0.150806	-0.361916	0.857857	0.460238	0.764781	0	0
1.29	-0.722601	1.37354	2.3447	0.776649	0.210039	0.98357	0.799758	-0.0857829	0.278207	1.08097	-0.118533	0	0	0.00140575	-0.00747576	-0.354587	0.762854	-0.169712	0	0	-0.0653154	-0.159403	0.167324	0.152051	-0.395094	1.07168	0.539851	0.638392	0	0	0.150718	-0.358903	0.839198	0.455524	0.789253	0	0
